<?xml version="1.0" standalone="no"?>
<!DOCTYPE svg PUBLIC "-//W3C//DTD SVG 20010904//EN"
 "http://www.w3.org/TR/2001/REC-SVG-20010904/DTD/svg10.dtd">
<svg version="1.0" xmlns="http://www.w3.org/2000/svg"
 width="260.000000pt" height="260.000000pt" viewBox="0 0 260.000000 260.000000"
 preserveAspectRatio="xMidYMid meet">
<metadata>
Created by potrace 1.11, written by Peter Selinger 2001-2013
</metadata>
<g transform="translate(0.000000,260.000000) scale(0.100000,-0.100000)"
fill="#000000" stroke="none">
<path d="M990 2474 c-63 -31 -126 -61 -140 -66 -25 -11 -25 -11 10 -18 88 -18
98 -28 175 -180 26 -52 52 -99 57 -105 5 -5 25 -10 46 -11 102 -4 187 -20 283
-53 106 -36 111 -40 195 -188 43 -76 82 -145 87 -153 4 -8 18 -33 32 -55 14
-22 29 -50 35 -62 13 -32 26 -35 43 -10 8 12 34 41 57 65 34 36 44 41 56 31
11 -9 18 -9 26 -1 17 17 59 15 85 -3 12 -8 38 -39 59 -67 21 -29 41 -55 44
-58 4 -3 18 -22 31 -42 51 -76 98 -91 146 -47 65 59 263 256 263 262 0 4 -11
7 -25 7 -43 0 -90 26 -128 70 -20 24 -37 49 -37 56 0 7 -4 14 -8 16 -5 2 -23
29 -41 61 -42 73 -67 97 -104 97 -31 0 -75 -41 -264 -243 -40 -43 -73 -74 -73
-68 0 20 -151 160 -232 214 -47 31 -90 57 -96 57 -9 0 -55 54 -63 75 -19 48
-258 421 -285 444 -53 47 -94 42 -234 -25z"/>
<path d="M945 2099 c-82 -12 -129 -21 -139 -27 -5 -3 -19 -6 -30 -8 -32 -4
-140 -46 -147 -56 -3 -5 -10 -10 -15 -10 -18 -1 -59 -20 -76 -35 -10 -9 -18
-13 -18 -9 0 4 -6 2 -12 -4 -7 -6 -43 -33 -79 -60 -126 -93 -232 -220 -300
-359 -23 -46 -42 -88 -43 -95 -2 -6 -11 -37 -20 -69 -26 -86 -28 -99 -31 -252
-3 -146 3 -203 36 -316 15 -51 98 -222 111 -227 4 -2 8 -8 8 -14 0 -17 59 -89
139 -169 83 -82 172 -147 266 -192 59 -29 220 -88 233 -85 4 1 18 -2 32 -5 39
-10 91 -18 143 -21 l47 -3 0 368 c0 396 2 379 -51 379 -11 0 -41 12 -66 26
-120 67 -174 187 -138 309 29 101 105 174 204 197 l51 11 0 367 0 366 -27 0
c-16 0 -50 -3 -78 -7z"/>
<path d="M1098 2072 c-2 -4 -4 -168 -3 -365 1 -232 -3 -361 -9 -365 -6 -3 -26
-7 -44 -9 -94 -10 -195 -103 -204 -189 l-3 -29 638 -1 637 0 -3 68 c-2 37 -7
71 -10 75 -4 3 -7 15 -7 26 0 58 -107 327 -131 327 -4 0 -13 -9 -19 -19 -5
-11 -16 -25 -23 -33 -7 -7 -26 -31 -42 -53 -17 -22 -32 -42 -35 -45 -3 -3 -17
-21 -30 -40 -14 -19 -30 -42 -37 -50 -38 -46 -162 -212 -167 -223 -10 -24 -14
-16 -296 528 -54 105 -123 238 -153 297 -31 59 -58 104 -59 100z"/>
<path d="M836 1061 c-6 -10 1 -37 19 -75 23 -49 94 -110 146 -125 30 -9 173
-13 549 -13 279 -1 512 2 517 5 14 9 34 88 40 158 l5 56 -636 0 c-350 0 -638
-3 -640 -6z"/>
<path d="M1099 765 c-4 -19 -3 -145 1 -146 3 -1 202 -2 443 -3 283 -1 441 3
446 9 8 11 61 133 61 141 0 6 -950 5 -951 -1z"/>
<path d="M1098 518 c-4 -10 -3 -127 1 -148 1 -3 157 -5 348 -5 l347 0 41 45
c22 25 42 47 45 50 3 3 16 20 29 37 l22 33 -414 0 c-323 0 -416 -3 -419 -12z"/>
<path d="M1099 248 c0 -2 -2 -38 -3 -80 -1 -50 2 -79 10 -82 16 -6 99 5 204
26 62 13 59 13 80 21 8 3 29 8 45 12 34 8 215 91 215 100 0 5 -549 8 -551 3z"/>
</g>
</svg>
